<svg xmlns="http://www.w3.org/2000/svg" width="44" height="32" viewBox="0 0 44 32">
  <path id="discord" d="M40,12A21.032,21.032,0,0,0,30,8l-.488.977A19.318,19.318,0,0,1,39,14c-4.047-2.066-8.04-4-15-4S13.047,11.934,9,14a19.733,19.733,0,0,1,9.488-5.023L18,8A20.9,20.9,0,0,0,8,12S2.879,19.426,2,34c5.16,5.953,13,6,13,6l1.64-2.184A20.035,20.035,0,0,1,8,32c3.238,2.45,8.125,5,16,5s12.762-2.55,16-5a20.024,20.024,0,0,1-8.64,5.816L33,40s7.84-.047,13-6C45.121,19.426,40,12,40,12ZM17.5,30A3.774,3.774,0,0,1,14,26a3.774,3.774,0,0,1,3.5-4A3.774,3.774,0,0,1,21,26,3.774,3.774,0,0,1,17.5,30Zm13,0A3.774,3.774,0,0,1,27,26a3.774,3.774,0,0,1,3.5-4A3.774,3.774,0,0,1,34,26,3.774,3.774,0,0,1,30.5,30Z" transform="translate(-2 -8)" fill="#fff"/>
</svg>
