<svg id="notification" xmlns="http://www.w3.org/2000/svg" width="123.9" height="118" viewBox="0 0 123.9 118">
  <g id="notifications-on" transform="translate(0 0)">
    <path id="Path_2" data-name="Path 2" d="M33.04,15.315l-8.26-8.26A62.209,62.209,0,0,0,0,53.075H11.8C12.98,37.145,20.65,23.575,33.04,15.315Zm79.06,37.76h11.8c-1.18-18.88-10.03-35.4-24.19-46.02l-8.26,8.26C103.25,23.575,110.92,37.145,112.1,53.075Zm-11.8,2.95c0-18.29-12.39-33.04-29.5-37.17v-4.13a8.85,8.85,0,1,0-17.7,0v4.13c-17.11,4.13-29.5,18.88-29.5,37.17v32.45l-11.8,11.8v5.9H112.1v-5.9l-11.8-11.8Zm-38.35,67.85h2.36a10.26,10.26,0,0,0,8.26-7.08,11.116,11.116,0,0,0,1.18-4.72H50.15A11.835,11.835,0,0,0,61.95,123.875Z" transform="translate(0 -5.875)" fill="#f6f6f6"/>
  </g>
</svg>
