<svg xmlns="http://www.w3.org/2000/svg" xmlns:xlink="http://www.w3.org/1999/xlink" width="104" height="97" viewBox="0 0 104 97">
  <defs>
    <clipPath id="clip-path">
      <rect id="Rectangle_268" data-name="Rectangle 268" width="104" height="97" rx="8" transform="translate(1312 224)" fill="#252736"/>
    </clipPath>
    <linearGradient id="linear-gradient" x1="-0.136" y1="0.921" x2="0.786" y2="-0.036" gradientUnits="objectBoundingBox">
      <stop offset="0" stop-color="#0071bc"/>
      <stop offset="0.352" stop-color="#00a99d"/>
      <stop offset="0.611" stop-color="#d4145a"/>
      <stop offset="1" stop-color="#f7931e"/>
    </linearGradient>
    <radialGradient id="radial-gradient" cx="-0.1" cy="0.452" r="0.413" gradientTransform="translate(-0.797) scale(2.595 1)" gradientUnits="objectBoundingBox">
      <stop offset="0.144" stop-color="#d4145a"/>
      <stop offset="1" stop-color="#d4145a" stop-opacity="0"/>
    </radialGradient>
    <radialGradient id="radial-gradient-2" cx="1.096" cy="-0.271" r="1.622" gradientTransform="translate(-0.049) scale(1.099 1)" gradientUnits="objectBoundingBox">
      <stop offset="0.379" stop-color="#f7931e"/>
      <stop offset="0.453" stop-color="#f48a22" stop-opacity="0.859"/>
      <stop offset="0.575" stop-color="#ee712e" stop-opacity="0.624"/>
      <stop offset="0.729" stop-color="#e34941" stop-opacity="0.329"/>
      <stop offset="0.901" stop-color="#d4145a" stop-opacity="0"/>
    </radialGradient>
    <radialGradient id="radial-gradient-3" cx="1.256" cy="0.571" r="0.69" gradientTransform="translate(-0.208) scale(1.416 1)" gradientUnits="objectBoundingBox">
      <stop offset="0.116" stop-color="#29abe2"/>
      <stop offset="1" stop-color="#29abe2" stop-opacity="0"/>
    </radialGradient>
    <radialGradient id="radial-gradient-4" cx="-0.142" cy="-0.162" r="1.027" gradientTransform="translate(0.061) scale(0.877 1)" gradientUnits="objectBoundingBox">
      <stop offset="0.433" stop-color="#fcee21"/>
      <stop offset="1" stop-color="#f7931e" stop-opacity="0"/>
    </radialGradient>
  </defs>
  <g id="surgewhite" transform="translate(-1312 -224)" clip-path="url(#clip-path)">
    <g id="surgewhite-2" data-name="surgewhite" transform="translate(1297.141 164.335)">
      <g id="Group_933" data-name="Group 933" transform="translate(70.43 112.102)">
        <path id="Path_846" data-name="Path 846" d="M70.43,177.013c.981-2.1,1.967-4.206,2.939-6.315.6-1.307,1.181-2.625,1.689-3.757,2.721,1.128,5.316,2.393,8.032,3.287a24.925,24.925,0,0,0,13.142.967c1.61-.344,3.107-.954,3.666-2.777a2.35,2.35,0,0,0-.646-2.647,9.17,9.17,0,0,0-3.062-1.811c-3.465-1-6.992-1.79-10.487-2.7a27.3,27.3,0,0,1-8.824-3.656c-4.24-2.919-5.91-7.055-5.481-12.059.644-7.517,5.312-11.67,12.062-13.859A35.573,35.573,0,0,1,98.7,130.537a38.61,38.61,0,0,1,9.507,2.284c.378.146.748.314,1.161.487-.687,3.968-1.362,7.865-2.057,11.878-.962-.439-1.817-.846-2.685-1.221a25.7,25.7,0,0,0-12.768-2.342,14.89,14.89,0,0,0-4.16,1.071,3.365,3.365,0,0,0-2.134,3.274,2.914,2.914,0,0,0,2.1,2.81c2.595.883,5.253,1.584,7.893,2.332,3.04.862,7.294,2.007,10.344,2.834-.029.053-.309,1.379-.309,1.379l-.559,3.083,4.8.589c-.391,2.112-.758,4.136-1.14,6.157-.871,4.606-2.861,15.113-2.861,15.113a32.714,32.714,0,0,1-12.354,2.588c-.366.011-2.922.006-3.216,0A38.554,38.554,0,0,1,78.3,180.895,50.443,50.443,0,0,1,70.43,177.013Z" transform="translate(-70.43 -130.212)" fill="#fff"/>
      </g>
      <path id="Path_847" data-name="Path 847" d="M697.389,110.89l-.245.415-.512.868c-.577.992-1.157,1.981-1.754,2.96-.494.814-.957,1.645-1.442,2.466q-1.347,2.289-2.7,4.578c-.092.153-.186.3-.28.452q-.661,1.124-1.323,2.248c-.406.7-.809,1.4-1.225,2.092-.057.1-.116.191-.173.284-.126.2-.252.406-.381.606-.111.173-.173.329-.267.49l-.319.541c-.618,1.051-1.239,2.1-1.86,3.149-.02.032-.04.057-.065.1l-.119.173-.005.008h.057c.583-.005,1.388,0,1.956.005.044,0,.092-.01.136-.01h6.391c-.373.564-.732,1.1-1.089,1.637-.287.485-.621.94-.927,1.41q-1.577,2.412-3.149,4.826a.193.193,0,0,1-.04.04q-1.31,2.011-2.622,4.017c-.037.06-.082.114-.124.171q-.619.953-1.241,1.91l-.168.257q-3.134,4.779-6.275,9.557c-.04.065-.084.126-.158.233.3-1.583.588-3.107.876-4.632.267-1.42.529-2.837.8-4.254q.241-1.287.493-2.577c.072-.381.146-.759.218-1.14a.264.264,0,0,1,.022-.052c.094-.519.183-1.039.279-1.556.065-.341.129-.685.193-1.026.092-.485.186-.967.277-1.452.005-.024.04-.178.047-.2.06-.336.136-.759.21-1.091l-.235-.024q-.42-.04-.838-.089c-.574-.062-1.145-.126-1.716-.191a.229.229,0,0,1-.037-.015l-1.57-.153.024-.151c.161-.905.314-1.813.47-2.721a1.064,1.064,0,0,1,.037-.129q.26-1.521.522-3.042c.121-.708.24-1.415.361-2.12q.252-1.491.509-2.978c.049-.284.1-.569.153-.853.065-.361.131-.72.2-1.081l.5-2.908q.237-1.41.48-2.817c.071-.42.151-.834.228-1.252.005-.024.01-.052.015-.077.109-.656.213-1.311.324-1.964.176-1.024.359-2.045.532-3.067a1.3,1.3,0,0,1,.03-.156c1.5-.151,3.149-.322,4.65-.477q1.788-.182,3.579-.366l3.042-.322,2.945-.3c.032,0,.065,0,.1,0l1.758-.186.208-.022c.044,0,.092.005.126-.035h.117Z" transform="translate(-568.029 0)" fill="url(#linear-gradient)"/>
      <path id="Path_848" data-name="Path 848" d="M686.881,236.537a16,16,0,0,1-7.269,12.591c.072-.381.146-.759.218-1.14a.264.264,0,0,1,.022-.052c.094-.519.183-1.039.279-1.556.153-.826.312-1.652.47-2.478.005-.024.039-.178.047-.2.06-.336.136-.759.21-1.091l-.235-.024c-.853-.087-1.7-.186-2.555-.279a.225.225,0,0,1-.037-.015c-.468-.045-1.1-.107-1.57-.153l.025-.151c.161-.905.314-1.813.47-2.721a1.089,1.089,0,0,1,.037-.129q.26-1.521.522-3.042.434-2.548.871-5.1c.111-.646.233-1.289.351-1.934l.5-2.908q.237-1.41.48-2.817c.072-.42.151-.834.228-1.252a15.941,15.941,0,0,1,6.8,11.028c-.619,1.051-1.239,2.1-1.86,3.149-.02.032-.04.057-.065.1l-.124.181c.588-.005,1.425,0,2.013.005.044,0,.092-.01.136-.01h.033Z" transform="translate(-568.011 -104.224)" fill="url(#radial-gradient)"/>
      <path id="Path_849" data-name="Path 849" d="M718.515,110.89l-.757,1.284c-.577.992-1.157,1.981-1.753,2.96-.495.814-.958,1.645-1.442,2.466q-1.347,2.289-2.7,4.578c-.092.153-.186.3-.28.452q-.66,1.124-1.323,2.248c-.583,1-1.152,2.008-1.778,2.983-.119.174-.173.329-.267.49l-.319.541c-.619,1.051-1.239,2.1-1.86,3.149-.02.032-.039.057-.065.1l-.119.173a16,16,0,0,1-6.829-2.558q.252-1.492.509-2.978c.111-.646.233-1.289.351-1.934l.5-2.908q.237-1.41.48-2.817c.072-.42.151-.834.228-1.252.005-.024.01-.052.015-.077.109-.656.213-1.311.324-1.964.176-1.024.359-2.045.532-3.067a1.348,1.348,0,0,1,.029-.156c1.5-.151,3.149-.322,4.65-.477q1.788-.182,3.579-.366l3.042-.322,2.945-.3c.032,0,.065,0,.1,0l1.966-.208c.045,0,.092.005.126-.035h.117Z" transform="translate(-589.156 0)" fill="url(#radial-gradient-2)"/>
      <path id="Path_850" data-name="Path 850" d="M742.737,376.827c-.373.564-.732,1.1-1.089,1.637-.287.485-.621.94-.927,1.41q-1.577,2.412-3.149,4.826a.2.2,0,0,1-.04.039q-1.31,2.011-2.622,4.017c-.037.06-.082.114-.124.171q-.619.953-1.241,1.91a11.218,11.218,0,0,1-3.725-5.191c.092-.485.186-.967.277-1.452.005-.024.04-.178.047-.2.06-.336.136-.759.21-1.091l-.235-.025q-.42-.04-.838-.089c-.008-.161-.013-.322-.013-.485a11.357,11.357,0,0,1,7.942-10.534c-.126.2-.252.406-.381.606-.111.173-.173.329-.267.49l-.319.541c-.619,1.051-1.239,2.1-1.86,3.149-.02.032-.04.057-.065.1l-.119.173-.005.008h.057c.583-.005,1.388,0,1.956.005.045,0,.092-.01.136-.01h6.391Z" transform="translate(-617.508 -244.514)" fill="url(#radial-gradient-3)"/>
      <path id="Path_851" data-name="Path 851" d="M728.177,112.149l-.512.868c-.577.992-1.157,1.981-1.753,2.96-.494.814-.957,1.645-1.442,2.466q-1.347,2.29-2.7,4.578c-.092.153-.186.3-.28.452q-.661,1.124-1.323,2.248c-.406.7-.809,1.4-1.225,2.092a15.952,15.952,0,0,1-3.01.284,15.435,15.435,0,0,1-6.339-1.333c.065-.361.131-.72.2-1.081l.5-2.908q.237-1.41.48-2.817c.072-.42.151-.834.228-1.252.005-.024.01-.052.015-.077.109-.656.213-1.311.324-1.964.176-1.024.359-2.045.532-3.067a1.286,1.286,0,0,1,.03-.156c1.5-.151,3.148-.322,4.65-.477q1.788-.182,3.579-.366l3.042-.322,2.945-.3c.032,0,.065,0,.1,0l1.758-.186C728.043,111.909,728.11,112.028,728.177,112.149Z" transform="translate(-599.062 -0.844)" fill="url(#radial-gradient-4)"/>
    </g>
  </g>
</svg>
